<?xml version="1.0" standalone="no"?>
<!DOCTYPE svg PUBLIC "-//W3C//DTD SVG 20010904//EN"
 "http://www.w3.org/TR/2001/REC-SVG-20010904/DTD/svg10.dtd">
<svg version="1.0" xmlns="http://www.w3.org/2000/svg"
 width="744.000000pt" height="720.000000pt" viewBox="0 0 744.000000 720.000000"
 preserveAspectRatio="xMidYMid meet">

<g transform="translate(0.000000,720.000000) scale(0.100000,-0.100000)"
fill="#000000" stroke="none">
<path d="M3550 7064 c-355 -5 -901 -24 -1130 -40 -1086 -74 -1485 -247 -1763
-764 -66 -122 -128 -272 -281 -677 -74 -197 -158 -414 -186 -482 -27 -69 -50
-128 -50 -132 0 -7 36 -12 185 -25 l71 -6 40 59 c23 32 76 119 119 193 118
205 190 306 295 411 110 111 189 169 317 233 243 122 541 175 913 163 102 -4
209 -10 239 -13 l54 -7 -7 -211 c-40 -1244 -253 -2243 -650 -3061 -161 -332
-318 -585 -612 -985 -265 -360 -338 -483 -375 -628 -23 -91 -24 -170 -4 -287
46 -261 203 -471 439 -585 160 -77 334 -99 516 -65 503 96 774 546 949 1576
88 513 146 1066 281 2654 85 1000 128 1494 136 1558 l6 47 790 0 789 0 -5 -67
c-4 -38 -13 -167 -21 -288 -22 -319 -57 -713 -130 -1460 -82 -838 -110 -1151
-135 -1500 -43 -606 -58 -1056 -41 -1223 74 -719 474 -1180 1121 -1289 132
-22 406 -22 526 0 192 35 347 97 506 203 381 253 671 740 803 1350 29 131 55
333 55 421 l0 63 -133 0 -133 0 -13 -104 c-61 -531 -375 -824 -860 -803 -146
6 -242 30 -341 84 -410 224 -528 815 -419 2103 10 129 42 465 69 745 75 783
94 1022 110 1420 5 138 10 266 10 287 l0 36 855 -5 855 -6 0 359 c0 197 -3
443 -7 545 l-6 187 -401 6 c-444 7 -3007 14 -3346 10z"/>
</g>
</svg>
